<svg xmlns="http://www.w3.org/2000/svg" viewBox="0 0 20 20"><defs><style>.cls-1{fill:#839589;}</style></defs><g id="draft"><path class="cls-1" d="M14.3,17a.87.87,0,1,0,1.21.22A.88.88,0,0,0,14.3,17"/><path class="cls-1" d="M9.2,18.56a.54.54,0,1,0,.61.88.53.53,0,0,0,.14-.75.54.54,0,0,0-.75-.13"/><path class="cls-1" d="M3,16.06a.39.39,0,0,0,.76-.17.38.38,0,0,0-.46-.29.39.39,0,0,0-.3.46"/><path class="cls-1" d="M1.52,10.06A.82.82,0,0,0,1.3,8.91a.82.82,0,0,0-1.15.21.83.83,0,1,0,1.37.94"/><path class="cls-1" d="M4.37,4.69a.63.63,0,1,0-.88-.16.63.63,0,0,0,.88.16"/><path class="cls-1" d="M6.25.81A.44.44,0,0,0,5.73.47a.45.45,0,1,0,.19.87A.44.44,0,0,0,6.25.81"/><path class="cls-1" d="M11.9,1.4a.82.82,0,0,0-1.13-.29.84.84,0,0,0-.29,1.14.84.84,0,0,0,1.14.28A.82.82,0,0,0,11.9,1.4"/><path class="cls-1" d="M17.74,6.8a.7.7,0,1,0-1-.18.71.71,0,0,0,1,.18"/><path class="cls-1" d="M19.1,10.92a.51.51,0,0,0-.62-.4.52.52,0,1,0,.62.4"/><path class="cls-1" d="M20,8.39a.39.39,0,0,0-.46-.3.4.4,0,0,0-.3.47.39.39,0,0,0,.46.3.4.4,0,0,0,.3-.47"/><path class="cls-1" d="M17.06,8.08A2.08,2.08,0,0,0,16,7.3a3.67,3.67,0,0,0-.65-2.39A3.72,3.72,0,0,0,11,3.53a4.19,4.19,0,0,0-4.66.07,4.13,4.13,0,0,0-1.54,2A2.85,2.85,0,0,0,3.56,6a2.82,2.82,0,0,0-.78,3.81,3,3,0,0,0-.5,3.87A3,3,0,0,0,4.33,15a3.28,3.28,0,0,0,.57,1.76,3.25,3.25,0,0,0,4.52.83l.16-.13a2.41,2.41,0,0,0,4-1.21,3.46,3.46,0,0,0,2.15-.62,3.55,3.55,0,0,0,1-4.82A2.06,2.06,0,0,0,17.06,8.08ZM11.85,14a1.71,1.71,0,0,1-.94-1.88c.14-.57,1.42-2.92,1.47-3.28s-.15-.39-.27-.4-.28.07-.44.3S9.94,12.15,9.8,12.41a.88.88,0,0,1-.87.56c-.46,0-.67-.27-.6-.71,0-.26,1.05-2.54,1.1-2.9A.5.5,0,0,0,9.2,8.8.46.46,0,0,0,8.65,9c-.11.18-1.54,3.92-1.7,4.2a1,1,0,0,1-1,.65A1.32,1.32,0,0,1,4.6,12.08,42,42,0,0,1,6.17,7.41,1.64,1.64,0,0,1,8,6.67c.33.14.77.36.91.42.3.13.63-.23.76-.34a1.49,1.49,0,0,1,.41-.3,1.15,1.15,0,0,1,.59-.07.8.8,0,0,1,.38.16c.14.11.22.2.36.32a.3.3,0,0,0,.44,0,1.26,1.26,0,0,1,.82-.17A1.16,1.16,0,0,1,14,7.81c.14,1-1.64,3.57-1.51,4.76.09.85,1.51.25,1.63,1C14.23,14.59,12.29,14.22,11.85,14Z"/></g></svg>