<svg xmlns="http://www.w3.org/2000/svg" viewBox="0 0 120 120"><defs><style>.cls-1{fill:#839589;}</style></defs><g id="draft"><path class="cls-1" d="M108.32,72.47C96.09,76.24,87.94,87.91,76.65,84.86c-10.93-3-13-24.06-13-24.06A19.31,19.31,0,0,1,63.27,53c.79-5.32,1.84-10.93,1-16.11C63.09,29.7,57.54,26,50.34,25.48A15.57,15.57,0,0,0,34.55,35.77C31,45.57,31,45.57,20.8,49.05c1,5.78,5.23,8.31,10.29,8.6,4.54.25,9.15-1,15.09-1.8-1.2,2.54-2.39,5-3.47,7.53-5.81,7.67-10.6,18-10.6,25.57a31,31,0,0,0,46.16,27v.21c22.34-14,29.07-37.31,29.07-37.31C110.29,72.77,108.32,72.47,108.32,72.47Z"/><path class="cls-1" d="M60,120A60,60,0,0,1,17.57,17.57a60,60,0,0,1,84.86,84.86A59.63,59.63,0,0,1,60,120ZM60,2.34a57.66,57.66,0,0,0-40.77,98.43,57.66,57.66,0,1,0,81.54-81.54A57.28,57.28,0,0,0,60,2.34Z"/></g></svg>