<svg xmlns="http://www.w3.org/2000/svg" viewBox="0 0 128 128"><defs><style>.cls-1{fill:#839589;}</style></defs><g id="foreground"><path class="cls-1" d="M20.53,107.5h0a61.64,61.64,0,0,1-4.46-5H12.87c1.31,1.73,2.71,3.39,4.2,5Z"/><path class="cls-1" d="M37.44,119.5a61.06,61.06,0,0,1-8.54-5H24.7a62.87,62.87,0,0,0,7.41,5Z"/><path class="cls-1" d="M64,125.5a61.28,61.28,0,0,1-24.32-5H33.87a63.45,63.45,0,0,0,12.37,5Z"/><path class="cls-1" d="M123.78,78.5q-.61,2.53-1.44,5H125c.53-1.64,1-3.31,1.37-5Z"/><path class="cls-1" d="M8,89.5c-.75-1.64-1.43-3.3-2-5H3.36q.86,2.53,1.92,5Z"/><path class="cls-1" d="M15.26,101.5c-1.24-1.62-2.41-3.28-3.48-5H8.85q1.51,2.56,3.29,5Z"/><path class="cls-1" d="M11.15,95.5q-1.45-2.44-2.68-5H5.72q1.17,2.55,2.56,5Z"/><path class="cls-1" d="M77.79,126.5H50.21a64.14,64.14,0,0,0,27.58,0Z"/><path class="cls-1" d="M119.53,90.5q-1.23,2.55-2.68,5h2.87q1.4-2.44,2.56-5Z"/><path class="cls-1" d="M122,84.5c-.6,1.7-1.28,3.36-2,5h2.74q1.07-2.46,1.92-5Z"/><path class="cls-1" d="M116.22,96.5c-1.07,1.72-2.24,3.38-3.48,5h3.12q1.77-2.43,3.29-5Z"/><path class="cls-1" d="M34.83,77.5H79.15a25,25,0,0,1-5-5H37.55A31.76,31.76,0,0,0,34.83,77.5Z"/><path class="cls-1" d="M88.34,120.5a61.28,61.28,0,0,1-24.32,5H81.76a63.45,63.45,0,0,0,12.37-5Z"/><path class="cls-1" d="M112,102.5a61.64,61.64,0,0,1-4.46,5h3.44c1.49-1.61,2.89-3.27,4.2-5Z"/><path class="cls-1" d="M99.1,114.5a61.06,61.06,0,0,1-8.54,5h5.33a62.87,62.87,0,0,0,7.41-5Z"/><path class="cls-1" d="M5.66,83.5q-.82-2.46-1.44-5H1.66c.39,1.69.84,3.36,1.37,5Z"/><path class="cls-1" d="M.06,66.5c.06,1.68.2,3.35.39,5H3c-.2-1.65-.34-3.32-.41-5Z"/><path class="cls-1" d="M116.63,67.33l-.75.5a29.15,29.15,0,0,1-2.43,3.67h7.65c.06-.44.13-.88.17-1.33A3,3,0,0,0,116.63,67.33Z"/><path class="cls-1" d="M4,77.5c-.37-1.65-.68-3.31-.91-5H.57c.22,1.68.51,3.35.86,5Z"/><path class="cls-1" d="M21.58,108.5H18c.24.25.47.51.72.75q2.25,2.25,4.67,4.25h4.06A61.91,61.91,0,0,1,21.58,108.5Z"/><path class="cls-1" d="M107.49,20.51c1,1,1.88,2,2.77,3h3.3a64.14,64.14,0,0,0-4.31-4.75c-.08-.09-.17-.17-.25-.25h-3.63C106.09,19.15,106.8,19.82,107.49,20.51Z"/><path class="cls-1" d="M106.42,108.5a61.91,61.91,0,0,1-5.9,5h4.06q2.42-2,4.67-4.25c.25-.24.48-.5.72-.75Z"/><path class="cls-1" d="M107.11,77.5H120c.39-1.64.71-3.31,1-5h-8.33A28.58,28.58,0,0,1,107.11,77.5Z"/><path class="cls-1" d="M32.24,90.5a31.72,31.72,0,0,0,.46,5h79.53a57.66,57.66,0,0,0,2.91-5Z"/><path class="cls-1" d="M105.56,78.5a28.18,28.18,0,0,1-11.3,3.82A25.21,25.21,0,0,1,80.59,78.5H34.41a31.32,31.32,0,0,0-1.49,5H118.2q.89-2.44,1.55-5Z"/><path class="cls-1" d="M32.88,96.5a30.3,30.3,0,0,0,1.48,5h73.35a54.67,54.67,0,0,0,3.83-5Z"/><path class="cls-1" d="M32.73,84.5a31.73,31.73,0,0,0-.49,5h83.41c.81-1.63,1.54-3.29,2.19-5Z"/><path class="cls-1" d="M69.84,121.3q2.72-.27,5.35-.8H54.84a31.57,31.57,0,0,0,15,.8Z"/><path class="cls-1" d="M38.13,108.5a31.34,31.34,0,0,0,4.41,5H93.45a57,57,0,0,0,7.1-5Z"/><path class="cls-1" d="M43.69,114.5a31.65,31.65,0,0,0,8.33,5h27.4a57.34,57.34,0,0,0,12.27-5Z"/><path class="cls-1" d="M34.75,102.5a32,32,0,0,0,2.69,5h64.29a58.69,58.69,0,0,0,5.1-5Z"/><path class="cls-1" d="M37.32,30.69c-.11.25-.21.5-.31.76s-.11.25-.16.38c-.51,1.4-1,2.61-1.37,3.67h33.6a16.93,16.93,0,0,0-.65-3,14.4,14.4,0,0,0-.53-2H37.41Z"/><path class="cls-1" d="M119,36.5c.82,1.63,1.57,3.3,2.23,5h2.68c-.63-1.69-1.33-3.37-2.11-5Z"/><path class="cls-1" d="M123.53,48.5c.43,1.65.78,3.31,1.06,5h2.54c-.28-1.68-.6-3.35-1-5Z"/><path class="cls-1" d="M121.64,42.5q.92,2.46,1.62,5h2.59c-.45-1.69-.95-3.36-1.54-5Z"/><path class="cls-1" d="M127.3,54.5h-2.53c.25,1.65.43,3.32.55,5h2.51C127.71,57.82,127.55,56.15,127.3,54.5Z"/><path class="cls-1" d="M4.74,47.5q.71-2.53,1.62-5H3.69c-.59,1.64-1.09,3.31-1.54,5Z"/><path class="cls-1" d="M3.41,53.5c.28-1.69.63-3.35,1.06-5H1.88c-.41,1.65-.73,3.32-1,5Z"/><path class="cls-1" d="M6.75,41.5c.66-1.7,1.41-3.37,2.23-5H6.18c-.78,1.63-1.48,3.31-2.11,5Z"/><path class="cls-1" d="M2.68,59.5c.12-1.68.3-3.35.55-5H.7c-.25,1.65-.41,3.32-.53,5Z"/><path class="cls-1" d="M2.54,65.5c0-.5,0-1,0-1.5,0-1.17,0-2.34.11-3.5H.1C0,61.66,0,62.83,0,64c0,.5,0,1,0,1.5Z"/><path class="cls-1" d="M56.09.5A63.39,63.39,0,0,0,38,5.5h7a61.79,61.79,0,0,1,38,0h7A63.39,63.39,0,0,0,71.91.5Z"/><path class="cls-1" d="M125.39,60.5c.07,1.16.11,2.33.11,3.5,0,.5,0,1,0,1.5H128c0-.5,0-1,0-1.5,0-1.17,0-2.34-.1-3.5Z"/><path class="cls-1" d="M85.86,6.5a60.61,60.61,0,0,1,10.2,5h4.54a63.27,63.27,0,0,0-8.46-5Z"/><path class="cls-1" d="M111.13,24.5a62.55,62.55,0,0,1,3.79,5h3c-1.1-1.72-2.29-3.38-3.57-5Z"/><path class="cls-1" d="M97.63,12.5a62.19,62.19,0,0,1,6.6,5H108a66.48,66.48,0,0,0-5.93-5Z"/><path class="cls-1" d="M115.58,30.5q1.59,2.43,2.94,5h2.8c-.85-1.7-1.77-3.37-2.78-5Z"/><path class="cls-1" d="M30.79,42.5c-1.8,1.16-4.37,2-8.6,3.49a11.49,11.49,0,0,0,.37,1.51H67.89c.25-1.66.49-3.33.68-5Z"/><path class="cls-1" d="M49,54.5c.23,1.38-.4,3.16-1.41,5H68.46a41.1,41.1,0,0,1-.76-5Z"/><path class="cls-1" d="M17.74,23.5c.89-1,1.81-2,2.77-3,.69-.69,1.4-1.36,2.12-2H19c-.08.08-.17.16-.25.25a64.14,64.14,0,0,0-4.31,4.75Z"/><path class="cls-1" d="M23.77,17.5a62.19,62.19,0,0,1,6.6-5H26a66.48,66.48,0,0,0-5.93,5Z"/><path class="cls-1" d="M125.44,66.5c-.07,1.68-.21,3.35-.41,5h2.52c.19-1.65.33-3.32.39-5Z"/><path class="cls-1" d="M35.86,6.5a63.27,63.27,0,0,0-8.46,5h4.54a60.61,60.61,0,0,1,10.2-5Z"/><path class="cls-1" d="M40.68,68.5h0a31.94,31.94,0,0,0-2.44,3H73.47a30.35,30.35,0,0,1-2.75-5H42.51C41.44,67.72,40.68,68.5,40.68,68.5Z"/><path class="cls-1" d="M47,60.5a43.1,43.1,0,0,1-3.66,5H70.3a38.26,38.26,0,0,1-1.6-5Z"/><path class="cls-1" d="M53.92,20.88l-.22,0-.66,0-.5,0h-.11a16.48,16.48,0,0,0-3.24.34h0c-.53.11-1,.25-1.56.4l0,0a16.31,16.31,0,0,0-4.09,1.93H62.38A18.31,18.31,0,0,0,54.58,21Z"/><path class="cls-1" d="M9.48,35.5q1.35-2.56,2.94-5h-3c-1,1.63-1.93,3.3-2.78,5Z"/><path class="cls-1" d="M124.91,72.5c-.23,1.69-.54,3.35-.91,5h2.57c.35-1.65.64-3.32.86-5Z"/><path class="cls-1" d="M13.08,29.5a62.55,62.55,0,0,1,3.79-5H13.66c-1.28,1.62-2.47,3.28-3.57,5Z"/><path class="cls-1" d="M32.08,41.5H68.69a16.17,16.17,0,0,0,.52-4c0-.33,0-.65,0-1H35.09A13.61,13.61,0,0,1,32.08,41.5Z"/><path class="cls-1" d="M42.05,24.53l-.3.25c-.26.23-.52.46-.77.7l-.41.41c-.19.19-.37.4-.55.61l-.47.54c-.12.14-.22.29-.33.44a17.65,17.65,0,0,0-1.28,2H67.52a12.88,12.88,0,0,0-3.74-5H42.09Z"/><path class="cls-1" d="M41.44,54.5h-12a15.25,15.25,0,0,0,3.76.67A38.62,38.62,0,0,0,41.44,54.5Z"/><path class="cls-1" d="M67.74,48.5H22.9a9.76,9.76,0,0,0,4.26,5H47.58l.28,0,.16,0h19.6c-.08-1.24-.11-2.46-.08-3.66C67.6,49.39,67.67,49,67.74,48.5Z"/></g></svg>