<svg xmlns="http://www.w3.org/2000/svg" viewBox="0 0 128 128"><defs><style>.cls-1{fill:#839589;}</style></defs><g id="draft"><path class="cls-1" d="M89.63,80.58a15.4,15.4,0,0,1-8.09,0l-.05,0h-47c-.13.68-.22,1.34-.29,2h76.68c.34-.7.65-1.37.93-2Z"/><path class="cls-1" d="M73.36,73.58c-.38-.65-.74-1.32-1.08-2h-35c-.29.67-.55,1.33-.8,2Z"/><path class="cls-1" d="M38.64,68.58c-.32.66-.64,1.33-.93,2H71.8c-.29-.66-.57-1.33-.83-2Z"/><path class="cls-1" d="M34.08,83.58c0,.46,0,.93,0,1.38,0,.21,0,.41,0,.62h75.28c.38-.69.71-1.35,1-2Z"/><path class="cls-1" d="M75.51,76.58a21.89,21.89,0,0,1-1.52-2H36.1c-.24.67-.46,1.34-.66,2Z"/><path class="cls-1" d="M34.07,86.58c0,.67.09,1.34.16,2h73.41c.41-.68.78-1.35,1.15-2Z"/><path class="cls-1" d="M96.58,77.58a36.52,36.52,0,0,1-4,2h19.66c.32-.73.59-1.4.83-2Z"/><path class="cls-1" d="M106.27,71.58c-1.1.65-2.18,1.32-3.24,2h11.51c.35-.76.63-1.42.84-2Z"/><path class="cls-1" d="M79.1,79.58a13.08,13.08,0,0,1-2.65-2H35.16c-.19.67-.35,1.34-.49,2Z"/><path class="cls-1" d="M34.36,89.58c.09.67.2,1.34.33,2h71.09c.44-.68.86-1.34,1.26-2Z"/><path class="cls-1" d="M40.49,104.58c.51.69,1,1.35,1.61,2H93c.73-.66,1.44-1.33,2.12-2Z"/><path class="cls-1" d="M108,70.58h7.68a6.17,6.17,0,0,0,.29-2h-3.9A45.14,45.14,0,0,0,108,70.58Z"/><path class="cls-1" d="M46.29,55.58H67.78c0-.41-.07-.65-.07-.65-.12-.44-.2-.9-.29-1.35H47.19C46.88,54.25,46.59,54.91,46.29,55.58Z"/><path class="cls-1" d="M91.9,107.58H43c.65.69,1.33,1.36,2,2H89.5C90.33,108.92,91.13,108.25,91.9,107.58Z"/><path class="cls-1" d="M38.52,101.58c.4.68.81,1.35,1.26,2H96.16c.65-.67,1.29-1.33,1.9-2Z"/><path class="cls-1" d="M34.92,92.58c.16.67.34,1.34.54,2h68.26c.49-.67,1-1.34,1.39-2Z"/><path class="cls-1" d="M35.78,95.58c.23.67.48,1.34.75,2h64.92c.54-.67,1-1.34,1.54-2Z"/><path class="cls-1" d="M37,98.58c.31.68.63,1.35,1,2H99c.58-.67,1.15-1.34,1.7-2Z"/><path class="cls-1" d="M115.32,67.38l-.59.2h.91A.66.66,0,0,0,115.32,67.38Z"/><path class="cls-1" d="M101.46,74.58c-1.07.68-2.13,1.36-3.18,2h15.16c.35-.93.57-1.61.7-2Z"/><path class="cls-1" d="M36.13,29.58c-.26.72-.51,1.38-.74,2H68.58c0-.67-.13-1.34-.23-2Z"/><path class="cls-1" d="M31,38.58a17.25,17.25,0,0,1-4,2H68.15c.08-.67.16-1.34.23-2Z"/><path class="cls-1" d="M33.61,35.58a10.34,10.34,0,0,1-1.43,2h36.3c.06-.67.11-1.34.14-2Z"/><path class="cls-1" d="M22.55,44.58a10.88,10.88,0,0,0,1,2H67.26c.1-.66.2-1.33.31-2Z"/><path class="cls-1" d="M24.33,41.58,22,42.39c.07.41.16.81.26,1.19H67.72c.1-.67.2-1.33.29-2Z"/><path class="cls-1" d="M48.82,17.58a16.28,16.28,0,0,0-5.07,2H61.64a17.81,17.81,0,0,0-5.68-2Z"/><path class="cls-1" d="M43.14,50.58H28.3a14.59,14.59,0,0,0,4.64,1A46.08,46.08,0,0,0,43.14,50.58Z"/><path class="cls-1" d="M37.35,26.58a16.14,16.14,0,0,0-.72,1.65l-.13.35H68.15a15,15,0,0,0-.56-2Z"/><path class="cls-1" d="M67,118h.07a33,33,0,0,0,6.94-.74A68,68,0,0,1,67,118Z"/><path class="cls-1" d="M39.22,23.58a18.42,18.42,0,0,0-1.35,2H67.18a12.93,12.93,0,0,0-1.13-2Z"/><path class="cls-1" d="M39.14,67.58H70.59c-.24-.67-.46-1.34-.66-2H40.21C39.84,66.24,39.48,66.91,39.14,67.58Z"/><path class="cls-1" d="M88.12,110.58H46.21c.88.71,1.79,1.38,2.73,2H82.8C84.6,112,86.38,111.33,88.12,110.58Z"/><path class="cls-1" d="M63.8,115.58a61.82,61.82,0,0,0,15.59-2H50.57c.56.32,1.13.63,1.7.92a62.58,62.58,0,0,0,11.49,1.08Z"/><path class="cls-1" d="M44,59.58c-.46.65-.9,1.32-1.34,2H68.86c-.16-.71-.31-1.38-.43-2Z"/><path class="cls-1" d="M42,62.58c-.41.66-.81,1.32-1.2,2H69.63c-.2-.69-.37-1.35-.53-2Z"/><path class="cls-1" d="M48.61,50.58l-1,2H67.24c-.09-.66-.15-1.33-.18-2Z"/><path class="cls-1" d="M34.13,34.58H68.64c0-.67,0-1.34,0-2H35C34.7,33.32,34.41,34,34.13,34.58Z"/><path class="cls-1" d="M45.34,57.68c-.22.29-.44.6-.66.9H68.24c-.14-.77-.24-1.45-.32-2H45.84C45.67,56.94,45.5,57.31,45.34,57.68Z"/><path class="cls-1" d="M40.07,22.58H65.28a12.89,12.89,0,0,0-2.11-2H42.27A16,16,0,0,0,40.07,22.58Z"/><path class="cls-1" d="M67.16,47.58H24.22a9.87,9.87,0,0,0,2.19,2H67.05C67.06,48.92,67.1,48.25,67.16,47.58Z"/><path class="cls-1" d="M122.67,45.5c.21.66.4,1.33.59,2h2.59c-.18-.67-.36-1.34-.55-2Z"/><path class="cls-1" d="M121.64,42.5c.25.66.48,1.33.7,2H125c-.21-.67-.42-1.34-.66-2Z"/><path class="cls-1" d="M123.53,48.5c.17.66.32,1.33.47,2h2.57c-.15-.67-.29-1.34-.45-2Z"/><path class="cls-1" d="M120.43,39.5c.29.66.56,1.33.82,2h2.68c-.25-.67-.49-1.34-.77-2Z"/><path class="cls-1" d="M124.77,54.5c.1.66.18,1.33.26,2h2.52c-.08-.67-.15-1.34-.25-2Z"/><path class="cls-1" d="M2.54,62.5c0-.67,0-1.34.07-2H.1c0,.66,0,1.33-.06,2Z"/><path class="cls-1" d="M124.23,51.5c.13.66.25,1.33.36,2h2.54c-.11-.67-.21-1.34-.34-2Z"/><path class="cls-1" d="M125.15,57.5c.07.66.12,1.33.17,2h2.51c0-.67-.09-1.34-.16-2Z"/><path class="cls-1" d="M119,36.5c.34.66.66,1.33,1,2h2.74c-.29-.67-.58-1.34-.9-2Z"/><path class="cls-1" d="M113.51,27.5c.49.66.95,1.33,1.41,2h3c-.43-.67-.88-1.34-1.34-2Z"/><path class="cls-1" d="M92.54,9.5c1.19.63,2.36,1.29,3.52,2h4.54c-1-.7-2-1.36-3-2Z"/><path class="cls-1" d="M97.63,12.5c1,.64,1.94,1.3,2.89,2h4.06c-.84-.69-1.7-1.36-2.56-2Z"/><path class="cls-1" d="M75.05,3.5a61.52,61.52,0,0,1,8,2h7c-1.65-.74-3.34-1.41-5-2Z"/><path class="cls-1" d="M101.8,15.5c.82.64,1.63,1.31,2.43,2H108c-.73-.69-1.46-1.35-2.22-2Z"/><path class="cls-1" d="M2.54,65.5c0-.5,0-1,0-1.5,0-.17,0-.33,0-.5H0c0,.17,0,.33,0,.5,0,.5,0,1,0,1.5Z"/><path class="cls-1" d="M108.43,21.5c.63.66,1.24,1.32,1.83,2h3.3c-.55-.68-1.13-1.34-1.72-2Z"/><path class="cls-1" d="M115.58,30.5c.44.66.86,1.32,1.27,2h2.87c-.38-.67-.77-1.34-1.18-2Z"/><path class="cls-1" d="M2.68,59.5c0-.67.1-1.34.17-2H.33c-.07.66-.11,1.33-.16,2Z"/><path class="cls-1" d="M117.42,33.5c.37.66.75,1.33,1.1,2h2.8c-.33-.67-.67-1.34-1-2Z"/><path class="cls-1" d="M111.13,24.5c.55.66,1.08,1.32,1.61,2h3.12c-.49-.68-1-1.34-1.52-2Z"/><path class="cls-1" d="M85.86,6.5c1.59.6,3.16,1.26,4.7,2h5.33c-1.23-.71-2.48-1.38-3.75-2Z"/><path class="cls-1" d="M27.48,14.5c.95-.7,1.91-1.36,2.89-2H26c-.86.64-1.72,1.31-2.56,2Z"/><path class="cls-1" d="M31.94,11.5c1.16-.71,2.33-1.37,3.52-2h-5c-1,.64-2,1.3-3,2Z"/><path class="cls-1" d="M43.06,3.5c-1.71.59-3.4,1.26-5.05,2h7a61.52,61.52,0,0,1,8-2Z"/><path class="cls-1" d="M17.74,23.5c.59-.68,1.2-1.34,1.83-2H16.16c-.59.66-1.17,1.32-1.72,2Z"/><path class="cls-1" d="M23.77,17.5c.8-.69,1.61-1.36,2.43-2H22.27c-.76.65-1.49,1.31-2.22,2Z"/><path class="cls-1" d="M107.47,20.5h3.46c-.55-.59-1.1-1.18-1.68-1.75-.08-.09-.17-.17-.25-.25h-3.63C106.09,19.15,106.79,19.81,107.47,20.5Z"/><path class="cls-1" d="M37.44,8.5c1.54-.74,3.11-1.4,4.7-2H35.86c-1.27.62-2.52,1.29-3.75,2Z"/><path class="cls-1" d="M15.26,26.5c.53-.68,1.06-1.34,1.61-2H13.66c-.52.66-1,1.32-1.52,2Z"/><path class="cls-1" d="M64,2.5H81.76a64.33,64.33,0,0,0-35.52,0Z"/><path class="cls-1" d="M20.53,20.5c.68-.69,1.38-1.35,2.1-2H19c-.08.08-.17.16-.25.25-.58.57-1.13,1.16-1.68,1.75Z"/><path class="cls-1" d="M3.41,53.5c.11-.67.23-1.34.36-2H1.21c-.13.66-.23,1.33-.34,2Z"/><path class="cls-1" d="M4.74,47.5c.19-.67.38-1.34.59-2H2.7c-.19.66-.37,1.33-.55,2Z"/><path class="cls-1" d="M4,50.5c.15-.67.3-1.34.47-2H1.88c-.16.66-.3,1.33-.45,2Z"/><path class="cls-1" d="M5.66,44.5c.22-.67.45-1.34.7-2H3.69c-.24.66-.45,1.33-.66,2Z"/><path class="cls-1" d="M3,56.5c.08-.67.16-1.34.26-2H.7c-.1.66-.17,1.33-.25,2Z"/><path class="cls-1" d="M11.15,32.5c.41-.68.83-1.34,1.27-2h-3c-.41.66-.8,1.33-1.18,2Z"/><path class="cls-1" d="M6.75,41.5c.26-.67.53-1.34.82-2H4.84c-.28.66-.52,1.33-.77,2Z"/><path class="cls-1" d="M9.48,35.5c.35-.67.73-1.34,1.1-2H7.71c-.36.66-.7,1.33-1,2Z"/><path class="cls-1" d="M13.08,29.5c.46-.67.92-1.34,1.41-2H11.43c-.46.66-.91,1.33-1.34,2Z"/><path class="cls-1" d="M8,38.5c.3-.67.62-1.34,1-2H6.18c-.32.66-.61,1.33-.9,2Z"/><path class="cls-1" d="M127.9,60.5h-2.51c0,.66.06,1.33.07,2H128C128,61.83,127.94,61.16,127.9,60.5Z"/><path class="cls-1" d="M112,102.5c-.54.68-1.11,1.34-1.69,2h3.3c.54-.66,1.06-1.33,1.57-2Z"/><path class="cls-1" d="M119.53,90.5c-.32.67-.66,1.34-1,2h2.8c.33-.66.65-1.33,1-2Z"/><path class="cls-1" d="M116.22,96.5c-.42.67-.85,1.34-1.3,2h3c.42-.66.85-1.33,1.24-2Z"/><path class="cls-1" d="M109.38,105.5c-.62.67-1.24,1.34-1.89,2h3.44c.6-.66,1.19-1.32,1.77-2Z"/><path class="cls-1" d="M118,93.5c-.37.67-.74,1.34-1.13,2h2.87c.38-.66.75-1.33,1.1-2Z"/><path class="cls-1" d="M114.22,99.5c-.48.68-1,1.34-1.48,2h3.12c.48-.66,1-1.32,1.41-2Z"/><path class="cls-1" d="M88.34,120.5c-1.74.75-3.52,1.42-5.32,2h7c1.4-.62,2.79-1.28,4.14-2Z"/><path class="cls-1" d="M94.35,117.5c-1.24.71-2.51,1.38-3.79,2h5.33c1.1-.64,2.19-1.3,3.26-2Z"/><path class="cls-1" d="M99.1,114.5c-1,.7-2,1.37-3,2h4.54c.91-.64,1.81-1.31,2.7-2Z"/><path class="cls-1" d="M103.07,111.5c-.84.69-1.69,1.36-2.55,2h4.06c.78-.65,1.55-1.31,2.31-2Z"/><path class="cls-1" d="M125.25,69.5c-.06.67-.14,1.33-.22,2h2.52c.08-.67.15-1.33.2-2Z"/><path class="cls-1" d="M120.87,87.5c-.28.67-.58,1.34-.89,2h2.74c.29-.66.56-1.33.83-2Z"/><path class="cls-1" d="M106.42,108.5c-.71.69-1.45,1.35-2.19,2H108c.43-.41.88-.82,1.3-1.25.25-.24.48-.5.72-.75Z"/><path class="cls-1" d="M.17,68.5H2.68c-.05-.67-.09-1.33-.12-2H.06C.09,67.17.13,67.83.17,68.5Z"/><path class="cls-1" d="M125.49,63.5c0,.17,0,.33,0,.5,0,.5,0,1,0,1.5H128c0-.5,0-1,0-1.5,0-.17,0-.33,0-.5Z"/><path class="cls-1" d="M124.91,72.5c-.09.67-.2,1.34-.32,2h2.54c.11-.66.21-1.33.3-2Z"/><path class="cls-1" d="M79.61,123.5a61.76,61.76,0,0,1-15.59,2H81.76c2-.57,3.95-1.24,5.86-2Z"/><path class="cls-1" d="M122,84.5c-.24.67-.5,1.34-.76,2h2.68c.25-.66.49-1.33.71-2Z"/><path class="cls-1" d="M123,81.5c-.2.67-.42,1.34-.64,2H125c.21-.66.41-1.33.6-2Z"/><path class="cls-1" d="M123.78,78.5c-.16.67-.34,1.34-.52,2h2.59c.17-.66.34-1.33.49-2Z"/><path class="cls-1" d="M124.42,75.5c-.12.67-.27,1.34-.42,2h2.57c.14-.66.27-1.33.39-2Z"/><path class="cls-1" d="M125.44,66.5c0,.67-.07,1.33-.12,2h2.51c0-.67.08-1.33.11-2Z"/><path class="cls-1" d="M5.66,83.5c-.22-.66-.44-1.33-.64-2H2.43c.19.67.39,1.34.6,2Z"/><path class="cls-1" d="M6.75,86.5c-.26-.66-.52-1.33-.76-2H3.36c.22.67.46,1.34.71,2Z"/><path class="cls-1" d="M9.48,92.5c-.35-.66-.69-1.33-1-2H5.72c.31.67.63,1.34,1,2Z"/><path class="cls-1" d="M8,89.5c-.31-.66-.61-1.33-.89-2H4.45c.27.67.54,1.34.83,2Z"/><path class="cls-1" d="M11.15,95.5c-.39-.66-.76-1.33-1.13-2H7.18c.35.67.72,1.34,1.1,2Z"/><path class="cls-1" d="M4.74,80.5c-.18-.66-.36-1.33-.52-2H1.66c.15.67.32,1.34.49,2Z"/><path class="cls-1" d="M3.41,74.5c-.12-.66-.23-1.33-.32-2H.57c.09.67.19,1.34.3,2Z"/><path class="cls-1" d="M21.58,108.5H18c.24.25.47.51.72.75.42.43.87.84,1.3,1.25h3.72C23,109.85,22.29,109.19,21.58,108.5Z"/><path class="cls-1" d="M4,77.5c-.15-.66-.3-1.33-.42-2H1c.12.67.25,1.34.39,2Z"/><path class="cls-1" d="M.25,69.5c0,.67.12,1.33.2,2H3c-.08-.67-.16-1.33-.22-2Z"/><path class="cls-1" d="M17.74,104.5c-.58-.66-1.15-1.32-1.69-2H12.87c.51.67,1,1.34,1.57,2Z"/><path class="cls-1" d="M31.94,116.5c-1-.63-2-1.3-3-2H24.7c.89.69,1.79,1.36,2.7,2Z"/><path class="cls-1" d="M37.44,119.5c-1.28-.62-2.55-1.29-3.79-2h-4.8c1.07.7,2.16,1.36,3.26,2Z"/><path class="cls-1" d="M45,122.5c-1.8-.58-3.58-1.25-5.32-2H33.87c1.35.72,2.74,1.38,4.14,2Z"/><path class="cls-1" d="M64,125.5a61.76,61.76,0,0,1-15.59-2h-8c1.91.76,3.87,1.43,5.86,2Z"/><path class="cls-1" d="M27.48,113.5c-.86-.64-1.71-1.31-2.55-2H21.11c.76.69,1.53,1.35,2.31,2Z"/><path class="cls-1" d="M15.26,101.5c-.5-.66-1-1.32-1.48-2h-3c.45.68.93,1.34,1.41,2Z"/><path class="cls-1" d="M77.79,126.5H50.21a64.14,64.14,0,0,0,27.58,0Z"/><path class="cls-1" d="M20.53,107.5h0c-.65-.65-1.27-1.32-1.89-2H15.3c.58.68,1.17,1.34,1.77,2Z"/><path class="cls-1" d="M13.08,98.5c-.45-.66-.88-1.33-1.3-2H8.85c.39.67.82,1.34,1.24,2Z"/></g></svg>