<svg xmlns="http://www.w3.org/2000/svg" viewBox="0 0 128 128"><defs><style>.cls-1{fill:#839589;}</style></defs><g id="foreground"><path class="cls-1" d="M42.14,121.75a60.84,60.84,0,0,1-8.49-4h-4.8a63.26,63.26,0,0,0,7,4Z"/><path class="cls-1" d="M16.87,103.75c-1.09-1.3-2.11-2.63-3.09-4h-3c.91,1.37,1.9,2.7,2.93,4Z"/><path class="cls-1" d="M30.37,115.75a61.78,61.78,0,0,1-5.44-4H21.11q2.36,2.13,4.87,4Z"/><path class="cls-1" d="M12.42,97.75q-1.29-2-2.4-4H7.18q1.06,2,2.28,4Z"/><path class="cls-1" d="M.7,73.75H3.23c-.2-1.32-.36-2.66-.48-4H.25C.36,71.09.5,72.43.7,73.75Z"/><path class="cls-1" d="M4.47,79.75c-.34-1.32-.64-2.65-.89-4H1c.24,1.34.52,2.68.84,4Z"/><path class="cls-1" d="M6.36,85.75c-.49-1.32-.94-2.65-1.34-4H2.43c.38,1.35.79,2.68,1.26,4Z"/><path class="cls-1" d="M9,91.75c-.66-1.31-1.29-2.64-1.85-4H4.45c.53,1.35,1.1,2.69,1.73,4Z"/><path class="cls-1" d="M123,81.75c-.4,1.35-.85,2.68-1.34,4h2.67c.47-1.32.88-2.65,1.26-4Z"/><path class="cls-1" d="M94.35,117.75a60.84,60.84,0,0,1-8.49,4h6.28a63.26,63.26,0,0,0,7-4Z"/><path class="cls-1" d="M120.87,87.75c-.56,1.36-1.19,2.69-1.85,4h2.8c.63-1.31,1.2-2.65,1.73-4Z"/><path class="cls-1" d="M124.42,75.75c-.25,1.35-.55,2.68-.89,4h2.59c.32-1.32.6-2.66.84-4Z"/><path class="cls-1" d="M103.07,111.75a61.78,61.78,0,0,1-5.44,4H102q2.52-1.87,4.87-4Z"/><path class="cls-1" d="M118,93.75q-1.11,2-2.4,4h3q1.21-2,2.28-4Z"/><path class="cls-1" d="M114.22,99.75c-1,1.37-2,2.7-3.09,4h3.21c1-1.3,2-2.63,2.93-4Z"/><path class="cls-1" d="M109.69,75.75a28.65,28.65,0,0,1-6,4h15.75c.37-1.32.69-2.65,1-4Z"/><path class="cls-1" d="M20.51,107.74c-.65-.65-1.27-1.32-1.89-2H15.3c1.1,1.29,2.24,2.55,3.45,3.75.08.09.17.17.25.25h3.63C21.91,109.1,21.2,108.43,20.51,107.74Z"/><path class="cls-1" d="M75,73.75a28.09,28.09,0,0,1-2.75-4H39.8a32.89,32.89,0,0,0-2.9,4Z"/><path class="cls-1" d="M79.61,123.75a61.92,61.92,0,0,1-31.22,0h-8a63.61,63.61,0,0,0,15.71,4H71.91a63.61,63.61,0,0,0,15.71-4Z"/><path class="cls-1" d="M48,117.75a31.45,31.45,0,0,0,11.35,4h9.3c.41-.06.82-.12,1.22-.2a57.53,57.53,0,0,0,15.49-3.8Z"/><path class="cls-1" d="M109.38,105.75c-.62.67-1.24,1.34-1.89,2s-1.4,1.36-2.12,2H109c.08-.08.17-.16.25-.25,1.21-1.2,2.35-2.46,3.45-3.75Z"/><path class="cls-1" d="M77.79,1.75a64.14,64.14,0,0,0-27.58,0Z"/><path class="cls-1" d="M106.42,19.75H110c-.24-.25-.47-.51-.72-.75-1.13-1.14-2.31-2.21-3.52-3.25H101.8A60.15,60.15,0,0,1,106.42,19.75Z"/><path class="cls-1" d="M36.23,105.75a31.42,31.42,0,0,0,2.64,4H99.31a56.7,56.7,0,0,0,4.61-4Z"/><path class="cls-1" d="M32.34,87.75c-.07.85-.11,1.71-.11,2.58,0,.47,0,1,0,1.42h82.35c.71-1.3,1.36-2.64,2-4Z"/><path class="cls-1" d="M34,79.75H82.33a23.58,23.58,0,0,1-5.51-4h-41A30.93,30.93,0,0,0,34,79.75Z"/><path class="cls-1" d="M32.42,93.75a30.93,30.93,0,0,0,.69,4h77.75c.93-1.29,1.8-2.63,2.62-4Z"/><path class="cls-1" d="M40.54,111.75a31.55,31.55,0,0,0,4.41,4H89.78a57.44,57.44,0,0,0,6.78-4Z"/><path class="cls-1" d="M33.65,99.75a32.15,32.15,0,0,0,1.55,4h70.71q1.82-1.92,3.45-4Z"/><path class="cls-1" d="M125.25,69.75c-.12,1.34-.28,2.68-.48,4h2.53c.2-1.32.34-2.66.45-4Z"/><path class="cls-1" d="M98.47,81.75a29.28,29.28,0,0,1-4.21.82,28.44,28.44,0,0,1-6.66-.82H33.41a29.6,29.6,0,0,0-.85,4h84.88c.53-1.31,1-2.64,1.44-4Z"/><path class="cls-1" d="M127.67,57.75h-2.52c.14,1.32.24,2.66.29,4h2.5C127.89,60.41,127.81,59.07,127.67,57.75Z"/><path class="cls-1" d="M120.43,39.75c.57,1.32,1.1,2.65,1.58,4h2.63c-.45-1.35-.93-2.69-1.48-4Z"/><path class="cls-1" d="M122.67,45.75c.42,1.32.79,2.65,1.11,4h2.56c-.31-1.35-.65-2.68-1-4Z"/><path class="cls-1" d="M124.23,51.75c.27,1.32.49,2.66.68,4h2.52c-.18-1.34-.38-2.68-.64-4Z"/><path class="cls-1" d="M2.56,61.75c0-1.34.15-2.68.28-4H.33c-.14,1.32-.22,2.66-.27,4Z"/><path class="cls-1" d="M6,43.75c.48-1.35,1-2.68,1.58-4H4.84c-.55,1.31-1,2.65-1.48,4Z"/><path class="cls-1" d="M3.09,55.75c.19-1.34.41-2.68.68-4H1.21c-.26,1.32-.46,2.66-.64,4Z"/><path class="cls-1" d="M4.22,49.75c.32-1.35.69-2.68,1.11-4H2.7c-.39,1.32-.73,2.65-1,4Z"/><path class="cls-1" d="M2.61,67.75c-.07-1.16-.11-2.33-.11-3.5,0-.17,0-.33,0-.5H0c0,.17,0,.33,0,.5,0,1.17,0,2.34.1,3.5Z"/><path class="cls-1" d="M75.05,3.75a61,61,0,0,1,13.29,4h5.79a63.39,63.39,0,0,0-9.19-4Z"/><path class="cls-1" d="M125.49,63.75c0,.17,0,.33,0,.5,0,1.17,0,2.34-.11,3.5h2.51c.06-1.16.1-2.33.1-3.5,0-.17,0-.33,0-.5Z"/><path class="cls-1" d="M117.42,33.75c.75,1.31,1.46,2.64,2.11,4h2.75c-.62-1.35-1.28-2.69-2-4Z"/><path class="cls-1" d="M113.51,27.75c1,1.3,1.86,2.64,2.71,4h2.93c-.8-1.36-1.67-2.69-2.58-4Z"/><path class="cls-1" d="M108.43,21.75c1.23,1.29,2.41,2.62,3.52,4h3.18c-1-1.37-2.14-2.71-3.29-4Z"/><path class="cls-1" d="M92.54,9.75a62.1,62.1,0,0,1,6.56,4h4.2a65.4,65.4,0,0,0-5.73-4Z"/><path class="cls-1" d="M39.21,27.75a16.48,16.48,0,0,0-1.67,2.73c-.07.15-.15.3-.22.46s-.21.5-.31.76l0,.05H68.2a13.66,13.66,0,0,0-1.74-4Z"/><path class="cls-1" d="M21.58,19.75a60.15,60.15,0,0,1,4.62-4H22.27c-1.21,1-2.39,2.11-3.52,3.25-.25.24-.48.5-.72.75Z"/><path class="cls-1" d="M28.9,13.75a62.1,62.1,0,0,1,6.56-4h-5a65.4,65.4,0,0,0-5.73,4Z"/><path class="cls-1" d="M43.06,3.75a63.39,63.39,0,0,0-9.19,4h5.79A61,61,0,0,1,53,3.75Z"/><path class="cls-1" d="M47.6,21.8l0,0a16.51,16.51,0,0,0-5.51,3l-.3.25c-.26.23-.52.46-.77.7l0,0H64.87a15.29,15.29,0,0,0-7.27-4H47.81Z"/><path class="cls-1" d="M48.54,57.75a20.76,20.76,0,0,1-2.16,4H69a39.63,39.63,0,0,1-.87-4Z"/><path class="cls-1" d="M116.63,67.58l-.25.17h3.8A3,3,0,0,0,116.63,67.58Z"/><path class="cls-1" d="M41.62,67.75H71.18a35.59,35.59,0,0,1-1.62-4H45C43.7,65.4,42.44,66.84,41.62,67.75Z"/><path class="cls-1" d="M34.66,37.75H69.21v0a16.37,16.37,0,0,0-.49-4H36.24C35.65,35.34,35.15,36.65,34.66,37.75Z"/><path class="cls-1" d="M16.05,25.75c1.11-1.38,2.29-2.71,3.52-4H16.16c-1.15,1.29-2.25,2.63-3.29,4Z"/><path class="cls-1" d="M11.78,31.75c.85-1.36,1.75-2.7,2.71-4H11.43c-.91,1.31-1.78,2.64-2.58,4Z"/><path class="cls-1" d="M111.75,73.75h9.06c.18-1.1.34-2.21.46-3.33a3,3,0,0,0,0-.67h-6.4A28.08,28.08,0,0,1,111.75,73.75Z"/><path class="cls-1" d="M23.63,45.75l-1.44.49a12.59,12.59,0,0,0,1.16,3.51H67.59c.2-1.32.41-2.66.6-4Z"/><path class="cls-1" d="M8.47,37.75c.65-1.36,1.36-2.69,2.11-4H7.71c-.71,1.31-1.37,2.65-2,4Z"/><path class="cls-1" d="M33.65,39.75a9.41,9.41,0,0,1-4.73,4H68.45q.12-.93.21-1.86a16.85,16.85,0,0,0,.41-2.14Z"/><path class="cls-1" d="M67.8,55.75c-.15-1.35-.24-2.68-.26-4H24.7a11.81,11.81,0,0,0,8.47,3.67c4.46.25,9-.89,14.69-1.71.3.08.59.17.89.24a3.23,3.23,0,0,1,.29,1.8Z"/></g></svg>