<svg xmlns="http://www.w3.org/2000/svg" viewBox="0 0 128 128"><defs><style>.cls-1{fill:#839589;}</style></defs><g id="Layer_3" data-name="Layer 3"><path class="cls-1" d="M31.6,55a15.71,15.71,0,0,0,1.57.17A29.23,29.23,0,0,0,37.82,55Z"/><path class="cls-1" d="M46.71,61c-.44.68-.91,1.35-1.38,2H69.4c-.21-.66-.41-1.33-.58-2Z"/><path class="cls-1" d="M48.34,58a18.9,18.9,0,0,1-1,2H68.58c-.15-.67-.29-1.33-.41-2Z"/><path class="cls-1" d="M49.06,55a6.27,6.27,0,0,1-.34,2H68c-.1-.67-.18-1.33-.25-2Z"/><path class="cls-1" d="M29.94,43a35,35,0,0,1-4.88,2h43.2c.09-.67.17-1.33.25-2Z"/><path class="cls-1" d="M22.19,46a14.23,14.23,0,0,0,.52,2H67.82l.3-2Z"/><path class="cls-1" d="M25.18,52a10.25,10.25,0,0,0,2.95,2H44.45c1.1-.18,2.23-.37,3.41-.54.3.08.59.17.89.24,0,.1.08.2.12.3H67.65c-.05-.67-.08-1.34-.1-2Z"/><path class="cls-1" d="M109.09,76a28.23,28.23,0,0,1-2.74,2h13.53c.16-.66.31-1.33.46-2Z"/><path class="cls-1" d="M2.64,60c0-.67.09-1.34.15-2H.28c-.06.66-.1,1.33-.14,2Z"/><path class="cls-1" d="M44.57,64c-.57.73-1.12,1.4-1.63,2H70.51c-.28-.66-.54-1.33-.78-2Z"/><path class="cls-1" d="M85.87,81a23.36,23.36,0,0,1-4.45-2H34.23c-.25.66-.48,1.32-.68,2Z"/><path class="cls-1" d="M76.32,75c-.61-.64-1.19-1.3-1.74-2H37.21c-.41.65-.8,1.32-1.17,2Z"/><path class="cls-1" d="M112.21,73c-.63.7-1.29,1.37-2,2h10.32c.13-.66.24-1.33.34-2Z"/><path class="cls-1" d="M36.05,34c-.27.72-.52,1.39-.76,2H69.14a16.34,16.34,0,0,0-.31-2Z"/><path class="cls-1" d="M104.67,79a29.34,29.34,0,0,1-4.55,2H119c.2-.66.39-1.33.57-2Z"/><path class="cls-1" d="M3.88,51c.15-.67.29-1.34.45-2H1.77c-.16.66-.31,1.33-.45,2Z"/><path class="cls-1" d="M5.49,45c.22-.67.44-1.34.68-2H3.52c-.23.66-.45,1.33-.66,2Z"/><path class="cls-1" d="M7.79,39c.3-.67.61-1.34.93-2H6c-.31.66-.61,1.33-.89,2Z"/><path class="cls-1" d="M6.55,42c.26-.67.52-1.34.8-2H4.64c-.26.66-.52,1.33-.77,2Z"/><path class="cls-1" d="M4.61,48c.18-.67.35-1.34.55-2H2.57c-.2.66-.38,1.33-.56,2Z"/><path class="cls-1" d="M2.91,57c.07-.67.15-1.34.24-2H.63c-.09.66-.17,1.33-.24,2Z"/><path class="cls-1" d="M73.83,72c-.46-.65-.9-1.31-1.31-2H39.39c-.53.65-1,1.31-1.51,2Z"/><path class="cls-1" d="M3.32,54c.11-.67.21-1.34.34-2H1.13C1,52.66.89,53.33.78,54Z"/><path class="cls-1" d="M17.3,24c.59-.68,1.18-1.34,1.8-2H15.73c-.58.66-1.14,1.32-1.68,2Z"/><path class="cls-1" d="M38.87,28a16.8,16.8,0,0,0-1.2,2H67.73a14.15,14.15,0,0,0-1-2Z"/><path class="cls-1" d="M9.23,36c.34-.67.7-1.34,1.07-2H7.44c-.36.66-.68,1.33-1,2Z"/><path class="cls-1" d="M14.87,27c.51-.67,1-1.34,1.57-2H13.27c-.51.66-1,1.33-1.49,2Z"/><path class="cls-1" d="M46.37,22a16.46,16.46,0,0,0-3.6,2H63.12a15.24,15.24,0,0,0-3.87-2Z"/><path class="cls-1" d="M12.73,30c.45-.68.93-1.34,1.41-2H11.08c-.45.66-.88,1.33-1.31,2Z"/><path class="cls-1" d="M10.87,33c.39-.67.81-1.34,1.23-2h-3c-.4.66-.77,1.33-1.15,2Z"/><path class="cls-1" d="M79.85,78a23.06,23.06,0,0,1-2.5-2H35.52c-.32.65-.63,1.32-.91,2Z"/><path class="cls-1" d="M33.93,39h35.2c0-.5.08-1,.08-1.52,0-.16,0-.32,0-.48H34.88C34.56,37.75,34.25,38.42,33.93,39Z"/><path class="cls-1" d="M37,31.45c0,.13-.11.25-.16.38L36.42,33H68.58c0-.18-.09-.36-.15-.54-.1-.51-.22-1-.36-1.46H37.19Z"/><path class="cls-1" d="M41,25.48l-.41.41c-.19.19-.37.4-.55.61s-.29.33-.43.5H66.13a13,13,0,0,0-1.77-2H41.51Z"/><path class="cls-1" d="M116.63,67.33l-.75.5c-.22.4-.46.79-.69,1.17h6a3,3,0,0,0-1.89-2h-2A3.13,3.13,0,0,0,116.63,67.33Z"/><path class="cls-1" d="M20.05,21c.16-.16.3-.33.46-.49C21,20,21.57,19.5,22.1,19H18.5c-.65.66-1.28,1.32-1.9,2Z"/><path class="cls-1" d="M23.11,49a9.88,9.88,0,0,0,1.19,2H67.53c0-.39,0-.78,0-1.16l.12-.84Z"/><path class="cls-1" d="M33.33,40a8.16,8.16,0,0,1-1.83,2H68.62c0-.12,0-.24,0-.36.14-.54.25-1.09.34-1.64Z"/><path class="cls-1" d="M23.19,18c.78-.69,1.57-1.35,2.37-2H21.69c-.74.65-1.46,1.32-2.16,2Z"/><path class="cls-1" d="M22.1,109H18.5c.09.08.16.17.25.25.59.6,1.21,1.18,1.83,1.75h3.77C23.59,110.35,22.84,109.69,22.1,109Z"/><path class="cls-1" d="M114.54,70c-.47.69-1,1.36-1.47,2h8c.08-.61.17-1.21.23-1.83a1,1,0,0,0,0-.17Z"/><path class="cls-1" d="M36.45,9c1.44-.72,2.9-1.4,4.39-2h-6c-1.24.63-2.45,1.29-3.64,2Z"/><path class="cls-1" d="M105.9,109c-.74.69-1.49,1.35-2.25,2h3.77c.62-.57,1.24-1.15,1.83-1.75.09-.08.16-.17.25-.25Z"/><path class="cls-1" d="M41.67,4q-2.43.9-4.79,2h6.59a60.32,60.32,0,0,1,7-2Z"/><path class="cls-1" d="M26.84,15c.91-.69,1.83-1.36,2.77-2H25.34c-.85.64-1.68,1.31-2.5,2Z"/><path class="cls-1" d="M31.16,12c1.1-.7,2.23-1.37,3.37-2H29.64c-1,.64-2,1.3-2.95,2Z"/><path class="cls-1" d="M48.84,118a31,31,0,0,0,4.48,2H77.49a57.86,57.86,0,0,0,6.56-2Z"/><path class="cls-1" d="M35,103c.3.68.62,1.35,1,2h68.5c.66-.65,1.3-1.32,1.93-2Z"/><path class="cls-1" d="M32.48,94c.08.67.19,1.34.31,2h79.1c.44-.66.86-1.32,1.28-2Z"/><path class="cls-1" d="M33,97c.15.68.32,1.34.51,2h76.23c.5-.66,1-1.32,1.46-2Z"/><path class="cls-1" d="M96.31,82c-.68.13-1.36.24-2,.32A29.47,29.47,0,0,1,90.18,82H33.27c-.17.66-.33,1.32-.46,2H118c.25-.66.48-1.33.7-2Z"/><path class="cls-1" d="M33.82,100c.22.68.47,1.34.73,2h72.72c.57-.65,1.13-1.32,1.68-2Z"/><path class="cls-1" d="M32.64,85c-.1.66-.2,1.33-.26,2h84.44c.29-.66.56-1.33.82-2Z"/><path class="cls-1" d="M32.3,88c0,.66-.07,1.33-.07,2H115.4c.33-.66.65-1.33,1-2Z"/><path class="cls-1" d="M32.25,91c0,.67.06,1.34.12,2h81.4c.38-.66.76-1.32,1.11-2Z"/><path class="cls-1" d="M71.94,69c-.36-.65-.68-1.32-1-2H42.06c-.82.93-1.38,1.5-1.38,1.5h0l-.44.5Z"/><path class="cls-1" d="M44.31,115a32.82,32.82,0,0,0,2.83,2H86.57q2.15-.91,4.2-2Z"/><path class="cls-1" d="M56.73,121a31.41,31.41,0,0,0,13.11.3c.82-.08,1.64-.18,2.45-.3Z"/><path class="cls-1" d="M36.51,106c.4.68.82,1.35,1.26,2h63.39c.77-.65,1.51-1.32,2.24-2Z"/><path class="cls-1" d="M41,112c.67.7,1.36,1.37,2.09,2H92.59c1.1-.63,2.18-1.3,3.23-2Z"/><path class="cls-1" d="M38.48,109c.51.69,1.06,1.35,1.62,2H97.3c.9-.64,1.77-1.31,2.63-2Z"/><path class="cls-1" d="M53.92,20.88l-.22,0-.66,0-.5,0h-.11a17.1,17.1,0,0,0-2.28.19H55L54.58,21Z"/><path class="cls-1" d="M121.83,43c.24.66.46,1.33.68,2h2.63c-.21-.67-.43-1.34-.66-2Z"/><path class="cls-1" d="M127.93,61h-2.5c0,.66,0,1.33,0,2H128C128,62.33,128,61.66,127.93,61Z"/><path class="cls-1" d="M124.85,55c.09.66.17,1.33.24,2h2.52c-.07-.67-.15-1.34-.24-2Z"/><path class="cls-1" d="M122.84,46c.2.66.37,1.33.55,2H126c-.18-.67-.36-1.34-.56-2Z"/><path class="cls-1" d="M125.5,64c0,.67,0,1.33,0,2H128c0-.67,0-1.33,0-2Z"/><path class="cls-1" d="M123.67,49c.16.66.3,1.33.45,2h2.56c-.14-.67-.29-1.34-.45-2Z"/><path class="cls-1" d="M124.34,52c.13.66.23,1.33.34,2h2.54c-.11-.67-.22-1.34-.35-2Z"/><path class="cls-1" d="M125.21,58c.06.66.1,1.33.15,2h2.5c0-.67-.08-1.34-.14-2Z"/><path class="cls-1" d="M125.43,67c0,.67-.09,1.33-.15,2h2.51c0-.67.11-1.33.14-2Z"/><path class="cls-1" d="M123.67,79c-.17.67-.36,1.34-.55,2h2.59c.18-.66.36-1.33.52-2Z"/><path class="cls-1" d="M121.83,85c-.24.67-.5,1.34-.77,2h2.68c.26-.66.51-1.33.74-2Z"/><path class="cls-1" d="M122.84,82c-.21.67-.44,1.34-.66,2h2.63c.22-.66.43-1.33.62-2Z"/><path class="cls-1" d="M125.21,70c-.06.67-.15,1.33-.24,2h2.52c.08-.67.16-1.33.23-2Z"/><path class="cls-1" d="M124.34,76c-.14.67-.29,1.33-.45,2h2.56c.15-.66.3-1.33.42-2Z"/><path class="cls-1" d="M120.65,88c-.29.67-.58,1.34-.89,2h2.74c.29-.66.58-1.33.86-2Z"/><path class="cls-1" d="M124.85,73c-.1.67-.22,1.33-.34,2H127c.12-.67.23-1.33.33-2Z"/><path class="cls-1" d="M93.47,10c1.14.63,2.27,1.3,3.37,2h4.47c-1-.7-2-1.36-3-2Z"/><path class="cls-1" d="M102.44,16c.8.65,1.59,1.31,2.37,2h3.66c-.71-.68-1.42-1.35-2.16-2Z"/><path class="cls-1" d="M98.39,13c.94.64,1.86,1.31,2.77,2h4c-.82-.69-1.65-1.36-2.5-2Z"/><path class="cls-1" d="M87.16,7c1.49.6,3,1.28,4.39,2h5.22c-1.19-.71-2.4-1.37-3.64-2Z"/><path class="cls-1" d="M77.52,4a60.32,60.32,0,0,1,7,2h6.59q-2.36-1.1-4.79-2Z"/><path class="cls-1" d="M52.74,127a63.89,63.89,0,0,0,22.52,0Z"/><path class="cls-1" d="M120.65,40c.28.66.54,1.33.8,2h2.68c-.25-.67-.51-1.34-.77-2Z"/><path class="cls-1" d="M52.74,1a64.33,64.33,0,0,0-8.16,2H56.24A60.47,60.47,0,0,1,71.76,3H83.42a64.33,64.33,0,0,0-8.16-2Z"/><path class="cls-1" d="M117.7,34c.37.66.73,1.33,1.07,2h2.8c-.33-.67-.65-1.34-1-2Z"/><path class="cls-1" d="M119.28,37c.32.66.63,1.33.93,2h2.73c-.28-.67-.58-1.34-.89-2Z"/><path class="cls-1" d="M115.9,31c.42.66.84,1.33,1.23,2H120c-.38-.67-.75-1.34-1.15-2Z"/><path class="cls-1" d="M108.9,22c.62.66,1.21,1.32,1.8,2H114c-.54-.68-1.11-1.34-1.68-2Z"/><path class="cls-1" d="M113.86,28c.48.66,1,1.32,1.41,2h3c-.43-.67-.86-1.34-1.31-2Z"/><path class="cls-1" d="M105.9,19c.53.5,1.07,1,1.59,1.51.16.16.3.33.46.49h3.45c-.62-.68-1.25-1.34-1.9-2Z"/><path class="cls-1" d="M111.56,25c.54.66,1.06,1.33,1.57,2h3.09c-.48-.67-1-1.34-1.49-2Z"/><path class="cls-1" d="M6.94,87c-.27-.66-.53-1.33-.77-2H3.52c.23.67.48,1.34.74,2Z"/><path class="cls-1" d="M9.73,93c-.35-.66-.68-1.33-1-2H6c.31.67.64,1.34,1,2Z"/><path class="cls-1" d="M11.46,96c-.4-.66-.78-1.33-1.16-2H7.44c.35.67.74,1.34,1.12,2Z"/><path class="cls-1" d="M8.24,90c-.31-.66-.6-1.33-.89-2H4.64c.28.67.57,1.34.86,2Z"/><path class="cls-1" d="M13.43,99c-.46-.66-.9-1.33-1.33-2h-3c.41.67.83,1.34,1.27,2Z"/><path class="cls-1" d="M119.28,91c-.33.67-.66,1.34-1,2h2.8c.34-.66.67-1.33,1-2Z"/><path class="cls-1" d="M18.17,105c-.59-.66-1.17-1.32-1.73-2H13.27c.52.67,1.05,1.34,1.6,2Z"/><path class="cls-1" d="M21.05,108l-.54-.51c-.48-.49-1-1-1.41-1.49H15.73c.59.68,1.2,1.34,1.82,2Z"/><path class="cls-1" d="M15.66,102c-.52-.66-1-1.32-1.52-2H11.08c.46.67.92,1.34,1.41,2Z"/><path class="cls-1" d="M2.72,69c-.06-.67-.12-1.33-.15-2H.07c0,.67.09,1.33.14,2Z"/><path class="cls-1" d="M.05,66h2.5c0-.67,0-1.33,0-2H0C0,64.67,0,65.33.05,66Z"/><path class="cls-1" d="M3,72c-.09-.67-.18-1.33-.24-2H.28c.07.67.15,1.33.23,2Z"/><path class="cls-1" d="M4.88,81c-.19-.66-.38-1.33-.55-2H1.77c.16.67.34,1.34.52,2Z"/><path class="cls-1" d="M5.82,84c-.22-.66-.45-1.33-.66-2H2.57c.19.67.4,1.34.62,2Z"/><path class="cls-1" d="M3.49,75c-.12-.67-.24-1.33-.34-2H.63c.1.67.21,1.33.33,2Z"/><path class="cls-1" d="M4.11,78c-.16-.67-.31-1.33-.45-2H1.13c.12.67.27,1.34.42,2Z"/><path class="cls-1" d="M2.52,63c0-.67,0-1.34,0-2H.07c0,.66,0,1.33,0,2Z"/><path class="cls-1" d="M111.56,103c-.56.68-1.14,1.34-1.73,2h3.3c.55-.66,1.08-1.33,1.6-2Z"/><path class="cls-1" d="M108.9,106c-.46.5-.93,1-1.41,1.49L107,108h3.5c.62-.66,1.23-1.32,1.82-2Z"/><path class="cls-1" d="M102.44,112c-.86.69-1.74,1.36-2.63,2h4.13c.8-.65,1.6-1.31,2.37-2Z"/><path class="cls-1" d="M117.7,94c-.38.67-.76,1.34-1.16,2h2.9c.38-.66.77-1.33,1.12-2Z"/><path class="cls-1" d="M98.39,115c-1,.7-2.09,1.37-3.16,2h4.66c.94-.64,1.86-1.31,2.77-2Z"/><path class="cls-1" d="M113.86,100c-.49.68-1,1.34-1.52,2h3.17c.49-.66.95-1.33,1.41-2Z"/><path class="cls-1" d="M115.9,97c-.43.67-.87,1.34-1.33,2h3c.44-.66.86-1.33,1.27-2Z"/><path class="cls-1" d="M46.58,123q-2.92-.85-5.74-2h-6q2.1,1.08,4.26,2Z"/><path class="cls-1" d="M38.54,120c-1.36-.62-2.7-1.28-4-2H29.64c1.1.7,2.22,1.37,3.35,2Z"/><path class="cls-1" d="M93.47,118c-1.31.72-2.65,1.38-4,2H95c1.13-.63,2.25-1.3,3.35-2Z"/><path class="cls-1" d="M32.77,117c-1.07-.63-2.13-1.3-3.16-2H25.34c.91.69,1.83,1.36,2.77,2Z"/><path class="cls-1" d="M28.19,114c-.89-.64-1.77-1.31-2.63-2H21.69c.77.69,1.57,1.35,2.37,2Z"/><path class="cls-1" d="M87.16,121q-2.82,1.14-5.74,2h7.45q2.16-.91,4.26-2Z"/><path class="cls-1" d="M80,126a61.27,61.27,0,0,0,6.38-2H77.52a61.68,61.68,0,0,1-27,0H41.67a61.27,61.27,0,0,0,6.38,2Z"/></g></svg>