<svg xmlns="http://www.w3.org/2000/svg" viewBox="0 0 20 20"><defs><style>.cls-1{fill:#839589;}</style></defs><g id="draft"><path class="cls-1" d="M4.8,12.37a1.9,1.9,0,1,1-1.89-1.89H4.8Z"/><path class="cls-1" d="M5.74,12.37a1.89,1.89,0,0,1,3.78,0V17.1a1.89,1.89,0,1,1-3.78,0Z"/><path class="cls-1" d="M7.63,4.78A1.89,1.89,0,1,1,9.52,2.89V4.78Z"/><path class="cls-1" d="M7.63,5.74a1.89,1.89,0,0,1,0,3.78H2.89a1.89,1.89,0,0,1,0-3.78Z"/><path class="cls-1" d="M15.21,7.63A1.89,1.89,0,1,1,17.1,9.52H15.21Z"/><path class="cls-1" d="M14.26,7.63a1.89,1.89,0,0,1-3.78,0V2.89a1.89,1.89,0,0,1,3.78,0Z"/><path class="cls-1" d="M12.37,15.21a1.89,1.89,0,1,1-1.89,1.89V15.21Z"/><path class="cls-1" d="M12.37,14.26a1.89,1.89,0,1,1,0-3.78h4.75a1.89,1.89,0,1,1,0,3.78Z"/></g></svg>