<svg xmlns="http://www.w3.org/2000/svg" viewBox="0 0 20 20"><defs><style>.cls-1{fill:#839589;}</style></defs><g id="draft"><path class="cls-1" d="M19,4.42A7.47,7.47,0,0,1,16.88,5,3.69,3.69,0,0,0,18.5,3a7.28,7.28,0,0,1-2.34.89A3.7,3.7,0,0,0,9.77,6.38a3.86,3.86,0,0,0,.09.84A10.46,10.46,0,0,1,2.25,3.36a3.77,3.77,0,0,0-.5,1.86A3.67,3.67,0,0,0,3.4,8.29a3.67,3.67,0,0,1-1.68-.46v0a3.7,3.7,0,0,0,3,3.62,3.93,3.93,0,0,1-1,.13A3.84,3.84,0,0,1,3,11.56a3.69,3.69,0,0,0,3.45,2.57,7.44,7.44,0,0,1-4.59,1.58A6.4,6.4,0,0,1,1,15.65a10.43,10.43,0,0,0,5.66,1.66A10.43,10.43,0,0,0,17.17,6.81c0-.16,0-.32,0-.48A7.6,7.6,0,0,0,19,4.42Z"/></g></svg>