<svg xmlns="http://www.w3.org/2000/svg" viewBox="0 0 400 100"><defs><style>.cls-1{fill:#839589;}</style></defs><g id="foreground"><path class="cls-1" d="M40.22,72.5c-.07-1.66-.07-3.26-.07-4.72V48.26a22.63,22.63,0,0,0-1.12-7,14.71,14.71,0,0,0-3.47-5.63,17.68,17.68,0,0,0-5.83-3.82,23.8,23.8,0,0,0-8.41-1.32A27.9,27.9,0,0,0,11,32.36a24.28,24.28,0,0,0-8.12,4.93l-.21.07,4.93,6,.07-.07a17.51,17.51,0,0,1,5.56-3.68,18.74,18.74,0,0,1,7.08-1.46,12.69,12.69,0,0,1,7.92,2.36c1.94,1.53,3,4,3,7.3v1c-3.69,0-7.44.21-11.12.49a39.55,39.55,0,0,0-10.07,2.08A17.11,17.11,0,0,0,2.78,56,11.62,11.62,0,0,0,0,64.24a12.92,12.92,0,0,0,1.53,6.6,13.27,13.27,0,0,0,4,4.3A16.56,16.56,0,0,0,10.9,77.5a22.82,22.82,0,0,0,5.56.7,18.47,18.47,0,0,0,9-2.08,17.5,17.5,0,0,0,6.18-5.56,31.09,31.09,0,0,0,.7,6.25v.07h8.4V76.6A16,16,0,0,1,40.22,72.5Zm-9-14.93a13.42,13.42,0,0,1-3.27,9.24c-2.15,2.5-5.35,3.68-9.44,3.68a16.2,16.2,0,0,1-3.27-.28,8.74,8.74,0,0,1-2.85-1.11A7,7,0,0,1,10.28,67a6.4,6.4,0,0,1-.83-3.2,5.71,5.71,0,0,1,1.87-4.44A11,11,0,0,1,16,56.81a38.09,38.09,0,0,1,6.39-1.11c2.37-.21,4.66-.28,6.88-.28h1.88Z"/><path class="cls-1" d="M85,65.42a11.31,11.31,0,0,1-4.51,3.47,14.67,14.67,0,0,1-6,1.32,13.79,13.79,0,0,1-6.18-1.32,14.71,14.71,0,0,1-4.52-3.47,15.53,15.53,0,0,1-2.85-5.14,20.27,20.27,0,0,1-1-6,16.16,16.16,0,0,1,1-6.05,17.06,17.06,0,0,1,2.85-5.14,13.62,13.62,0,0,1,10.56-4.79,12.88,12.88,0,0,1,6,1.46,10.34,10.34,0,0,1,4.24,3.61l.07.21,6.8-5.42-.06-.07a17.63,17.63,0,0,0-7.51-5.55,25.52,25.52,0,0,0-9.44-1.95,27.05,27.05,0,0,0-9.59,1.74A21.72,21.72,0,0,0,52.09,44.65a25.66,25.66,0,0,0-1.87,9.8,24.63,24.63,0,0,0,1.87,9.79,22.86,22.86,0,0,0,5.14,7.5,23.32,23.32,0,0,0,7.71,4.86,27.44,27.44,0,0,0,9.66,1.74,24.63,24.63,0,0,0,9.79-1.88,20.78,20.78,0,0,0,7.22-5.21l.07-.07-6.39-5.62Z"/><path class="cls-1" d="M130.3,65.42a11.38,11.38,0,0,1-4.51,3.47,14.68,14.68,0,0,1-6.05,1.32,13.82,13.82,0,0,1-6.18-1.32,14.67,14.67,0,0,1-4.51-3.47,15.35,15.35,0,0,1-2.85-5.14,20,20,0,0,1-1-6,16,16,0,0,1,1-6.05,16.85,16.85,0,0,1,2.85-5.14,13.94,13.94,0,0,1,4.51-3.47,14.1,14.1,0,0,1,6-1.32,12.92,12.92,0,0,1,6,1.46,10.38,10.38,0,0,1,4.23,3.61l.07.21,6.81-5.42-.07-.07a17.6,17.6,0,0,0-7.5-5.55,25.57,25.57,0,0,0-9.45-1.95,27,27,0,0,0-9.58,1.74A21.72,21.72,0,0,0,97.38,44.65a25.66,25.66,0,0,0-1.88,9.8,24.63,24.63,0,0,0,1.88,9.79,22.71,22.71,0,0,0,5.14,7.5,23.11,23.11,0,0,0,7.71,4.86,27.38,27.38,0,0,0,9.65,1.74,24.68,24.68,0,0,0,9.8-1.88,21,21,0,0,0,7.22-5.21l.07-.07-6.25-5.62Z"/><path class="cls-1" d="M180,36.73A19.06,19.06,0,0,0,173.09,32a24.94,24.94,0,0,0-9-1.67,25.43,25.43,0,0,0-9.24,1.74,21.66,21.66,0,0,0-7.5,4.93,23.83,23.83,0,0,0-4.93,7.57,27.22,27.22,0,0,0-1.74,9.66A25.37,25.37,0,0,0,142.52,64a24.1,24.1,0,0,0,4.94,7.5,22.73,22.73,0,0,0,7.5,4.86,26.19,26.19,0,0,0,9.58,1.74,24.57,24.57,0,0,0,10.91-2.29A22.42,22.42,0,0,0,184,68.75l.07-.07-6.6-5.21-.07.21a15.25,15.25,0,0,1-5.14,4.73,14.44,14.44,0,0,1-7.71,1.94,12.67,12.67,0,0,1-5.42-1,16.68,16.68,0,0,1-4.51-2.78,13,13,0,0,1-3.06-4.24,15.19,15.19,0,0,1-1.25-5h35.64v-.21a12.88,12.88,0,0,0,.06-1.52V54a29,29,0,0,0-1.52-9.79A23,23,0,0,0,180,36.73Zm-29.8,13.34a12.68,12.68,0,0,1,1.32-4.72,15.71,15.71,0,0,1,3-4,12.35,12.35,0,0,1,4.31-2.64,14.66,14.66,0,0,1,5.21-1,11.56,11.56,0,0,1,5.34,1,10.8,10.8,0,0,1,3.83,2.64,14,14,0,0,1,2.36,3.89,17.48,17.48,0,0,1,.9,4.72H150.1v.14Z"/><rect class="cls-1" x="196.49" y="6.73" width="9.24" height="71.19"/><path class="cls-1" d="M263.38,44.58a23.62,23.62,0,0,0-5.14-7.5,25.6,25.6,0,0,0-7.78-4.93,27.43,27.43,0,0,0-9.65-1.74,27.73,27.73,0,0,0-9.66,1.74,21.26,21.26,0,0,0-7.71,4.93,23.26,23.26,0,0,0-7,17.09,23.59,23.59,0,0,0,7,17.22,21.13,21.13,0,0,0,7.71,4.93,27.22,27.22,0,0,0,9.66,1.74,27.49,27.49,0,0,0,9.65-1.74,23,23,0,0,0,7.78-4.93,23.93,23.93,0,0,0,5.14-7.57,24.18,24.18,0,0,0,1.87-9.65A26.5,26.5,0,0,0,263.38,44.58Zm-8.75,15.7a17.06,17.06,0,0,1-2.85,5.14,13,13,0,0,1-4.65,3.47,14.92,14.92,0,0,1-6.25,1.32,13.53,13.53,0,0,1-6.26-1.32A13.84,13.84,0,0,1,230,65.42a16.26,16.26,0,0,1-2.85-5.14,19.53,19.53,0,0,1-1-6,16.16,16.16,0,0,1,1-6.05,14.85,14.85,0,0,1,2.85-5,13.84,13.84,0,0,1,4.65-3.47,15.09,15.09,0,0,1,6.26-1.32,13.64,13.64,0,0,1,6.25,1.32,13.84,13.84,0,0,1,4.65,3.47,17.21,17.21,0,0,1,2.85,5,20.28,20.28,0,0,1,1,6.05A26,26,0,0,1,254.63,60.28Z"/><path class="cls-1" d="M370.48,69.31h0A4.65,4.65,0,0,1,365.83,74H300a4.65,4.65,0,0,1-4.65-4.65h0A4.65,4.65,0,0,1,300,64.66h65.85A4.64,4.64,0,0,1,370.48,69.31Z"/><path class="cls-1" d="M339.09,11.38h0A4.66,4.66,0,0,1,334.43,16H285.12a4.66,4.66,0,0,1-4.65-4.66h0a4.65,4.65,0,0,1,4.65-4.65h49.31A4.66,4.66,0,0,1,339.09,11.38Z"/><path class="cls-1" d="M370.48,30.69h0a4.65,4.65,0,0,1-4.65,4.65H300a4.65,4.65,0,0,1-4.65-4.65h0A4.65,4.65,0,0,1,300,26h65.85A4.6,4.6,0,0,1,370.48,30.69Z"/><path class="cls-1" d="M400,50h0a4.65,4.65,0,0,1-4.65,4.65H315.26A4.65,4.65,0,0,1,310.61,50h0a4.65,4.65,0,0,1,4.65-4.65h80.16A4.63,4.63,0,0,1,400,50Z"/><path class="cls-1" d="M339.09,88.62h0a4.66,4.66,0,0,1-4.66,4.65H285.12a4.65,4.65,0,0,1-4.65-4.65h0A4.66,4.66,0,0,1,285.12,84h49.31A4.71,4.71,0,0,1,339.09,88.62Z"/></g></svg>