<svg xmlns="http://www.w3.org/2000/svg" viewBox="0 0 400 100"><defs><style>.cls-1{fill:#839589;}</style></defs><g id="foreground"><polygon class="cls-1" points="116.51 65.25 116.51 23.41 144.63 23.41 144.63 31.91 126.26 31.91 126.26 39.84 143.63 39.84 143.63 47.93 126.26 47.93 126.26 56.62 145.71 56.62 145.71 65.25 116.51 65.25"/><path class="cls-1" d="M169,52.42h-1.25c-1.07,0-2.14.06-3.22.15a13.55,13.55,0,0,0-2.89.56,5.26,5.26,0,0,0-2.1,1.21,2.82,2.82,0,0,0-.83,2.1,2.55,2.55,0,0,0,.38,1.42,3,3,0,0,0,1,1,4.36,4.36,0,0,0,1.36.5,8,8,0,0,0,1.47.14,6,6,0,0,0,4.53-1.64,6.06,6.06,0,0,0,1.56-4.4ZM151.2,39.84a17,17,0,0,1,6.05-3.72,21.11,21.11,0,0,1,7-1.24,18.94,18.94,0,0,1,6.3.92,9.42,9.42,0,0,1,4.16,2.83,12.11,12.11,0,0,1,2.35,4.85,28.44,28.44,0,0,1,.74,6.94V65.27H169V62.14h-.18a7.26,7.26,0,0,1-3.4,2.84,12,12,0,0,1-4.94,1,15,15,0,0,1-3.66-.46A10.53,10.53,0,0,1,153.35,64a8.41,8.41,0,0,1-2.57-2.83,8.68,8.68,0,0,1-1-4.38,7.43,7.43,0,0,1,1.74-5.18,11.32,11.32,0,0,1,4.49-3,23.4,23.4,0,0,1,6.12-1.43,65.36,65.36,0,0,1,6.56-.35v-.47a3.62,3.62,0,0,0-1.56-3.22,6.59,6.59,0,0,0-3.78-1,9.39,9.39,0,0,0-4,.92,12.72,12.72,0,0,0-3.28,2.12Z"/><path class="cls-1" d="M202,44.53a11.18,11.18,0,0,0-2.77-1.9,7.93,7.93,0,0,0-3.38-.78,6.05,6.05,0,0,0-2.51.53,1.89,1.89,0,0,0-1.15,1.84A1.84,1.84,0,0,0,193.46,46a27.91,27.91,0,0,0,4.11,1.17,22.94,22.94,0,0,1,3.34,1,11.83,11.83,0,0,1,3,1.71,8.21,8.21,0,0,1,2.19,2.61,7.62,7.62,0,0,1,.83,3.66A8.8,8.8,0,0,1,202.91,64a12.37,12.37,0,0,1-4,1.72,19.4,19.4,0,0,1-4.49.52,22.46,22.46,0,0,1-7-1.14,14.74,14.74,0,0,1-5.75-3.4l5.47-5.74a11,11,0,0,0,3.18,2.35,9,9,0,0,0,4,.95,5.31,5.31,0,0,0,2.35-.56,2,2,0,0,0,1.15-2,2.12,2.12,0,0,0-1.46-2,25.29,25.29,0,0,0-4.44-1.35,22.45,22.45,0,0,1-3.07-1A9.62,9.62,0,0,1,186,50.78a8.18,8.18,0,0,1-2-2.47,7.67,7.67,0,0,1-.78-3.55,8.6,8.6,0,0,1,1.12-4.52,9.47,9.47,0,0,1,2.9-3,12.85,12.85,0,0,1,3.91-1.75,17.17,17.17,0,0,1,4.28-.57A21,21,0,0,1,202,35.94a14.12,14.12,0,0,1,5.34,3.12Z"/><path class="cls-1" d="M229.7,69.68a25.07,25.07,0,0,1-2,4.11,12.51,12.51,0,0,1-2.59,3.07,10.34,10.34,0,0,1-3.56,1.92,16,16,0,0,1-4.81.65,24,24,0,0,1-2.81-.17,17.92,17.92,0,0,1-2.51-.48l1.07-8.15a11.83,11.83,0,0,0,1.56.38,10.3,10.3,0,0,0,1.56.15,4.41,4.41,0,0,0,3.25-1,8.52,8.52,0,0,0,1.72-2.93l1-2.43-12.3-28.95H220l6.57,18.91h.18l5.84-18.91h10.28Z"/><path class="cls-1" d="M270.5,34.58l-5.32,14.36H275.7Zm11.24,30.67L278.48,57H262.29l-3.08,8.22h-11l17.55-41.81h9.82L293,65.28Z"/><path class="cls-1" d="M317.11,50.35a8.31,8.31,0,0,0-.5-2.83,7.13,7.13,0,0,0-1.45-2.39,6.6,6.6,0,0,0-2.25-1.63,7,7,0,0,0-3-.59,6.86,6.86,0,0,0-2.93.59,6.68,6.68,0,0,0-2.16,1.56,7.35,7.35,0,0,0-1.35,2.35,8.58,8.58,0,0,0-.47,2.89,8.28,8.28,0,0,0,.47,2.83,7.58,7.58,0,0,0,1.35,2.4A6.86,6.86,0,0,0,307,57.19a6.6,6.6,0,0,0,2.93.62,7.08,7.08,0,0,0,3-.62,7,7,0,0,0,2.25-1.63,7.25,7.25,0,0,0,1.42-2.35,8.67,8.67,0,0,0,.5-2.9m9.22,12.19A20.89,20.89,0,0,1,325.09,70a13.68,13.68,0,0,1-9,8.38,23.24,23.24,0,0,1-7.12,1,28.6,28.6,0,0,1-8-1.18,21.73,21.73,0,0,1-7.12-3.43l4.85-6.91a14.07,14.07,0,0,0,4.69,2.8,15,15,0,0,0,5,.93c2.84,0,4.93-.79,6.3-2.25a8.61,8.61,0,0,0,2-6V61.64h-.17A9.6,9.6,0,0,1,313,64.48a12.51,12.51,0,0,1-5.26,1.07,13.92,13.92,0,0,1-6-1.22,13.12,13.12,0,0,1-4.39-3.27,14.48,14.48,0,0,1-2.78-4.81,18.73,18.73,0,0,1,0-11.72,14.86,14.86,0,0,1,2.78-4.87A13.11,13.11,0,0,1,307.68,35,13.11,13.11,0,0,1,313,36.11a9.29,9.29,0,0,1,4.08,3.49h.12V35.81h9.15Z"/><path class="cls-1" d="M333.43,35.82h9.69V65.25h-9.69Zm10.4-9.37a4.88,4.88,0,0,1-.44,2.09,5.14,5.14,0,0,1-1.19,1.69,5.41,5.41,0,0,1-1.76,1.11,5.78,5.78,0,0,1-2.17.42,5.41,5.41,0,0,1-3.95-1.56,5.06,5.06,0,0,1-1.6-3.75,5.27,5.27,0,0,1,.41-2,4.9,4.9,0,0,1,1.19-1.69,6.27,6.27,0,0,1,1.77-1.15,5.28,5.28,0,0,1,2.18-.44,5.58,5.58,0,0,1,2.17.41,5.28,5.28,0,0,1,1.76,1.12,5.14,5.14,0,0,1,1.19,1.68,4.89,4.89,0,0,1,.44,2.1"/><rect class="cls-1" x="350.23" y="20.57" width="9.87" height="44.67"/><path class="cls-1" d="M395.29,44.15a14.79,14.79,0,0,0-3.05-5A13,13,0,0,0,387.55,36a15.61,15.61,0,0,0-6-1.09A17.35,17.35,0,0,0,375.33,36a15,15,0,0,0-5,3.13,14.75,14.75,0,0,0-3.37,5,16.6,16.6,0,0,0-1.24,6.53A16.36,16.36,0,0,0,367,57.26a14.11,14.11,0,0,0,3.49,4.88,15.06,15.06,0,0,0,5.16,3,18.76,18.76,0,0,0,6.25,1,18.19,18.19,0,0,0,7.89-1.63,13.57,13.57,0,0,0,5.46-4.64l-6.73-4.26a7.61,7.61,0,0,1-2.6,2.22,8.13,8.13,0,0,1-3.91.86,7.81,7.81,0,0,1-4.68-1.56,6.35,6.35,0,0,1-1.57-1.74,5.12,5.12,0,0,1-.74-2.25h21.34a10.51,10.51,0,0,0,.06-1.12V50.88A19.51,19.51,0,0,0,395.29,44.15Zm-20.32,3a5.25,5.25,0,0,1,.6-2.15A5.94,5.94,0,0,1,377,43.2,6.9,6.9,0,0,1,379.05,42a7.48,7.48,0,0,1,2.6-.44A5.47,5.47,0,0,1,386,43.2a5.79,5.79,0,0,1,1.44,4Z"/><path class="cls-1" d="M61,74a28.31,28.31,0,0,1-12.39,2.86,19.93,19.93,0,0,1-11.72-3.33q-4.74-3.32-4.79-10.36V61.6a184.88,184.88,0,0,0,20.37-1.15,71.36,71.36,0,0,0,19-4.56A35.39,35.39,0,0,0,85.38,46.2q5.41-6.26,5.41-16.54,0-8.37-3.12-14.06a26.36,26.36,0,0,0-8-9.13A33,33,0,0,0,69,1.56,46,46,0,0,0,57.58,0,36.37,36.37,0,0,0,42.25,3.24,22.79,22.79,0,0,0,31.7,12.36h-.55V2.28H3.62V50a94.83,94.83,0,0,0,2.3,22.34A40.21,40.21,0,0,0,13.17,88a29.11,29.11,0,0,0,12.94,9.13q8,2.91,19.54,2.91a62.45,62.45,0,0,0,21.93-4A52.54,52.54,0,0,0,86.43,84L71.16,67.11A39.17,39.17,0,0,1,61,74ZM31.15,40.31q0-9,4.86-14.17t14.06-5.22a22.87,22.87,0,0,1,4.6.47A12.62,12.62,0,0,1,58.89,23a9.27,9.27,0,0,1,3,3,8.39,8.39,0,0,1,1.18,4.56,9.1,9.1,0,0,1-2.56,6.75A16.55,16.55,0,0,1,54,41.27a40,40,0,0,1-9,1.79c-3.36.32-6.7.47-10,.48H31.15Z"/></g></svg>